
        <svg xmlns="http://www.w3.org/2000/svg" xmlns:xlink="http://www.w3.org/1999/xlink" version="1.1" width="3300" 
        height="2464.2580889678484" viewBox="0 0 3300 2464.2580889678484">
			<rect fill="#95e1d3" width="3300" height="2464.2580889678484"/>
			<g transform="scale(15) translate(10, 10)">
				<defs id="SvgjsDefs1054"><linearGradient id="SvgjsLinearGradient1061"><stop id="SvgjsStop1062" stop-color="#2d388a" offset="0"></stop><stop id="SvgjsStop1063" stop-color="#00aeef" offset="1"></stop></linearGradient><linearGradient id="SvgjsLinearGradient1064"><stop id="SvgjsStop1065" stop-color="#2d388a" offset="0"></stop><stop id="SvgjsStop1066" stop-color="#00aeef" offset="1"></stop></linearGradient><linearGradient id="SvgjsLinearGradient1067"><stop id="SvgjsStop1068" stop-color="#2d388a" offset="0"></stop><stop id="SvgjsStop1069" stop-color="#00aeef" offset="1"></stop></linearGradient></defs><g id="SvgjsG1055" featureKey="symbolContainer" transform="matrix(1,0,0,1,49,0)" fill="url(#SvgjsLinearGradient1061)">    <path xmlns="http://www.w3.org/2000/svg" fill-rule="nonzero" d="             M0,0             H103             V98             H0,0             z             M4,4             v90             h95             v-90             z     "></path></g><g id="SvgjsG1056" featureKey="symbolFeature-0" transform="matrix(1.1666666666666667,0,0,1.1666666666666667,63.666666666666664,11.174329797426859)" fill="url(#SvgjsLinearGradient1064)"><title xmlns="http://www.w3.org/2000/svg">intelligent-search-Find-detect-SEO</title><g xmlns="http://www.w3.org/2000/svg"><path d="M35.5,23.936l1-1.731a9,9,0,0,0-12.846,4.42l1.854.75a7,7,0,0,1,9.99-3.439Z"></path><path d="M23.069,28.879a9.141,9.141,0,0,0,0,2.242l1.985-.242a7.181,7.181,0,0,1,0-1.758Z"></path><path d="M35,59V46.719a16.887,16.887,0,0,0,4.946-1.7l1.66,1.66V51.92a1,1,0,0,0,.293.707l2.122,2.122,1.414-1.414-1.829-1.829V46.264a1,1,0,0,0-.293-.707L41.7,43.942a17.149,17.149,0,0,0,1.576-1.253l3.575,3.575-.707.707a1,1,0,0,0,0,1.414l2.828,2.828a1,1,0,0,0,1.414,0l2.828-2.828a1,1,0,0,0,0-1.414l-2.828-2.828a1,1,0,0,0-1.414,0l-.707.707-3.575-3.575A17.149,17.149,0,0,0,45.942,39.7l1.615,1.614a1,1,0,0,0,.707.293h5.242l1.829,1.829,1.414-1.414L54.627,39.9a1,1,0,0,0-.707-.293H48.678l-1.66-1.66A16.887,16.887,0,0,0,48.719,33H58V31H48.949c.02-.333.051-.662.051-1s-.031-.667-.051-1H54V27H48.719a16.887,16.887,0,0,0-1.7-4.946l1.66-1.66H53.92a1,1,0,0,0,.707-.293l2.122-2.122-1.414-1.414-1.829,1.829H48.264a1,1,0,0,0-.707.293L45.942,20.3a17.149,17.149,0,0,0-1.253-1.576l3.575-3.575.707.707a1,1,0,0,0,1.414,0l2.828-2.828a1,1,0,0,0,0-1.414L50.385,8.787a1,1,0,0,0-1.414,0l-2.828,2.828a1,1,0,0,0,0,1.414l.707.707-3.575,3.575A17.149,17.149,0,0,0,41.7,16.058l1.614-1.615a1,1,0,0,0,.293-.707V8.494l1.829-1.829L44.021,5.251,41.9,7.373a1,1,0,0,0-.293.707v5.242l-1.66,1.66A16.872,16.872,0,0,0,33,13.051V11h1a1,1,0,0,0,1-1V6a1,1,0,0,0-1-1H30a1,1,0,0,0-1,1v4a1,1,0,0,0,1,1h1v2.051a16.872,16.872,0,0,0-6.946,1.931l-1.66-1.66V8.08a1,1,0,0,0-.293-.707L19.979,5.251,18.565,6.665l1.829,1.829v5.242a1,1,0,0,0,.293.707L22.3,16.058a17.149,17.149,0,0,0-1.576,1.253L17.15,13.736l.707-.707a1,1,0,0,0,0-1.414L15.029,8.787a1,1,0,0,0-1.414,0l-2.828,2.828a1,1,0,0,0,0,1.414l2.828,2.828a1,1,0,0,0,1.414,0l.707-.707,3.575,3.575A17.149,17.149,0,0,0,18.058,20.3l-1.615-1.614a1,1,0,0,0-.707-.293H10.494L8.665,16.565,7.251,17.979,9.373,20.1a1,1,0,0,0,.707.293h5.242l1.66,1.66A16.887,16.887,0,0,0,15.281,27H10v2h5.051c-.02.333-.051.662-.051,1s.031.667.051,1H6v2h9.281a16.887,16.887,0,0,0,1.7,4.946l-1.66,1.66H10.08a1,1,0,0,0-.707.293L7.251,42.021l1.414,1.414,1.829-1.829h5.242a1,1,0,0,0,.707-.293L18.058,39.7a17.149,17.149,0,0,0,1.253,1.576L15.736,44.85l-.707-.707a1,1,0,0,0-1.414,0l-2.828,2.828a1,1,0,0,0,0,1.414l2.828,2.828a1,1,0,0,0,1.414,0l2.828-2.828a1,1,0,0,0,0-1.414l-.707-.707,3.575-3.575A17.149,17.149,0,0,0,22.3,43.942l-1.614,1.615a1,1,0,0,0-.293.707v5.242l-1.829,1.829,1.414,1.414L22.1,52.627a1,1,0,0,0,.293-.707V46.678l1.66-1.66A16.887,16.887,0,0,0,29,46.719V59a3.015,3.015,0,0,0,3,3A3,3,0,0,0,35,59ZM49.678,46.264l1.414,1.414-1.414,1.414-1.414-1.414Zm0-35.356,1.414,1.414-1.414,1.414-1.414-1.414ZM31,7h2V9H31ZM14.322,13.736l-1.414-1.414,1.414-1.414,1.414,1.414Zm0,35.356-1.414-1.414,1.414-1.414,1.414,1.414ZM17,30A15,15,0,1,1,32,45,15.017,15.017,0,0,1,17,30ZM32,47c.338,0,.667-.031,1-.051V56H31V46.949C31.333,46.969,31.662,47,32,47ZM31,59V58h2v1a1,1,0,0,1-1,1,.977.977,0,0,1-.713-.307A.959.959,0,0,1,31,59Z"></path><rect x="57.163" y="14.15" width="2" height="2" transform="translate(6.323 45.565) rotate(-45)"></rect><rect x="45.85" y="2.837" width="2" height="2" transform="translate(11.009 34.251) rotate(-45)"></rect><rect x="16.15" y="55.163" width="2" height="2" transform="translate(-34.69 28.577) rotate(-45)"></rect><rect x="4.837" y="43.85" width="2" height="2" transform="translate(-30.004 17.263) rotate(-45)"></rect><rect x="4.837" y="14.15" width="2" height="2" transform="translate(-9.003 8.565) rotate(-45)"></rect><rect x="16.15" y="2.837" width="2" height="2" transform="translate(2.31 13.251) rotate(-45)"></rect><rect x="45.85" y="55.163" width="2" height="2" transform="translate(-25.991 49.577) rotate(-45)"></rect><rect x="57.163" y="43.85" width="2" height="2" transform="translate(-14.678 54.264) rotate(-45)"></rect><rect x="2" y="31" width="2" height="2"></rect><rect x="6" y="27" width="2" height="2"></rect><rect x="60" y="31" width="2" height="2"></rect><rect x="56" y="27" width="2" height="2"></rect><path d="M45,30A13,13,0,1,0,32,43,13.015,13.015,0,0,0,45,30ZM21,30A11,11,0,1,1,32,41,11.013,11.013,0,0,1,21,30Z"></path></g></g><g id="SvgjsG1057" featureKey="nameFeature-0" transform="matrix(0.6739452534657749,0,0,0.6739452534657749,-1.0783121805917424,112.47365612009257)" fill="url(#SvgjsLinearGradient1067)"><path d="M14.88 40.6 c-3.88 0 -7.04 -0.84 -9.52 -2.56 s-3.72 -4.04 -3.72 -7.04 l0 -0.36 l-0.04 -1.6 l7.84 0 l0 1.8 c0 0.68 0.48 1.32 1.4 1.92 s2.2 0.92 3.88 0.92 c1.4 0 2.4 -0.2 3.04 -0.56 c0.6 -0.36 0.92 -0.84 0.92 -1.36 c0 -0.64 -0.4 -1.2 -1.16 -1.68 c-0.8 -0.48 -2.2 -1.04 -4.16 -1.72 c-1.24 -0.44 -2.28 -0.8 -3.12 -1.12 s-1.84 -0.8 -3 -1.44 c-1.16 -0.6 -2.12 -1.28 -2.8 -1.96 s-1.28 -1.52 -1.8 -2.56 s-0.76 -2.16 -0.76 -3.4 c0 -2.92 1.12 -5.28 3.4 -7.04 s5.2 -2.64 8.8 -2.64 c3.72 0 6.76 0.92 9.16 2.76 s3.6 4.28 3.6 7.32 l0 1.96 l-7.8 0 l0 -1.8 c0 -0.84 -0.4 -1.64 -1.24 -2.32 s-2.04 -1 -3.56 -1 c-1.24 0 -2.2 0.2 -2.84 0.6 c-0.64 0.44 -0.96 0.92 -0.96 1.52 s0.36 1.08 1.08 1.48 c0.72 0.44 2.08 1 4.08 1.68 l2.04 0.72 l2.16 0.88 c0.92 0.44 1.68 0.8 2.24 1.16 s1.2 0.84 1.96 1.44 s1.32 1.24 1.76 1.84 c0.4 0.6 0.76 1.36 1.08 2.2 c0.28 0.84 0.44 1.76 0.44 2.68 c0 2.96 -1.16 5.24 -3.44 6.84 c-2.28 1.64 -5.28 2.44 -8.96 2.44 z M42.56 16.48 c6.8 0 12.12 5.4 12.12 11.68 c0 6.24 -5.32 11.64 -12.12 11.64 c-2 0 -3.92 -0.44 -5.68 -1.32 l0 8.72 l-6.36 0 l0 -30.4 l6.48 0 l0 0.92 c1.72 -0.84 3.6 -1.24 5.56 -1.24 z M42.56 33.72 c3.2 0 5.64 -2.64 5.64 -5.56 c0 -2.96 -2.44 -5.6 -5.64 -5.6 c-1.56 0 -2.88 0.56 -3.96 1.6 c-0.8 0.8 -1.6 2.24 -1.6 3.28 l0 1.4 c0 1.04 0.8 2.44 1.6 3.24 c1.08 1.04 2.4 1.64 3.96 1.64 z M57.480000000000004 28.36 c0 6.2 5.24 11.56 11.96 11.56 c6.68 0 11.92 -5.36 11.92 -11.56 c0 -6.16 -5.24 -11.52 -11.92 -11.52 c-6.72 0 -11.96 5.36 -11.96 11.52 z M74.96000000000001 28.36 c0 3 -2.32 5.52 -5.52 5.52 s-5.56 -2.56 -5.56 -5.52 c0 -2.92 2.36 -5.48 5.56 -5.48 s5.52 2.52 5.52 5.48 z M84.56 16.84 l0 23.16 l6.36 0 l0.08 -12.08 c0.04 -2.96 2.44 -5.44 5.6 -5.44 l1.68 0 l0.04 -6.08 l-1.72 0 c-1.96 0 -3.88 0.4 -5.6 1.28 l0 -0.84 l-6.44 0 z M107.88000000000001 22.32 l0 17.68 l6.48 0 l0 -7.04 c0 -2.56 -0.08 -5.16 -0.08 -7.72 l0 -2.92 l6.4 -0.08 l0 -5.48 l-6.4 0.04 l0 -8.08 l-6.36 0 l0 8.12 l-6.4 0 l0 5.48 l6.36 0 z M122.24000000000001 32.96 c0 5.6 7.08 7.04 11.4 7.04 c4.28 0 10.68 -1.4 10.68 -6.8 c0 -1.64 -0.48 -2.44 -1.44 -3.64 c-0.8 -1.04 -2 -1.8 -3.12 -2.36 c-0.84 -0.44 -1.76 -0.8 -2.68 -1.08 c-0.92 -0.32 -1.84 -0.56 -2.72 -0.88 c-0.48 -0.16 -1.08 -0.32 -1.72 -0.56 c-0.6 -0.2 -1.2 -0.4 -1.56 -0.6 c-0.2 -0.12 -0.4 -0.24 -0.56 -0.36 s-0.2 -0.24 -0.2 -0.36 c0 -0.32 0.32 -0.6 0.96 -0.84 c0.64 -0.2 1.36 -0.28 1.8 -0.28 c0.68 0 1.6 0.16 2.36 0.48 c0.76 0.36 1.24 0.84 1.24 1.48 l0 1.04 l7.28 -0.04 l0 -1.12 c0 -2.36 -1.28 -4.08 -3.2 -5.36 c-2.36 -1.52 -5.04 -2 -7.8 -2 c-4.32 0 -10.52 1.8 -10.52 7.08 c0 0.92 0.24 1.8 0.72 2.6 c0.4 0.64 0.92 1.36 1.56 1.88 c1.32 1.04 3.32 1.88 4.92 2.4 c0.84 0.28 1.76 0.48 2.6 0.8 c0.48 0.16 1.12 0.32 1.76 0.52 c0.64 0.24 1.2 0.44 1.64 0.64 c0.44 0.24 0.72 0.52 0.72 0.84 c0 0.36 -0.28 0.6 -1 0.8 c-0.64 0.16 -1.4 0.16 -1.84 0.16 c-1 0 -2.28 -0.12 -3.04 -0.56 c-0.24 -0.12 -0.48 -0.32 -0.68 -0.52 s-0.32 -0.36 -0.32 -0.52 l-0.04 -1.4 l-7.24 0 l0 0.16 c0.04 0.44 0.04 0.88 0.04 1.36 z M161.52 40 l0 -31.2 l8 0 l0 10.76 l9.68 -10.76 l10.32 0 l-12.32 13.4 l12.96 17.8 l-9.92 0 l-8.6 -11.76 l-2.12 2.36 l0 9.4 l-8 0 z M193.36 28.36 c0 -6.16 5.24 -11.52 11.96 -11.52 c6.68 0 11.92 5.36 11.92 11.52 c0 0.84 -0.08 1.64 -0.24 2.4 l-16.68 0.04 c0.88 1.8 2.72 3.08 5 3.08 c1.56 0 2.96 -0.64 3.92 -1.6 l7.28 0 c-1.64 4.36 -6 7.64 -11.2 7.64 c-6.72 0 -11.96 -5.2 -11.96 -11.4 l0 -0.16 z M200.52 25.6 l-0.2 0.56 l10.12 0 l-0.32 -0.56 c-0.96 -1.6 -2.68 -2.72 -4.8 -2.72 s-3.88 1.12 -4.8 2.72 z M220.44000000000003 16.84 l0 23.16 l6.36 0 l0.08 -12.08 c0.04 -2.96 2.44 -5.44 5.6 -5.44 l1.68 0 l0.04 -6.08 l-1.72 0 c-1.96 0 -3.88 0.4 -5.6 1.28 l0 -0.84 l-6.44 0 z M237.44000000000003 17.04 c0 7.52 -0.04 15.04 -0.04 22.6 l0 0.36 l6.48 0 l0 -11.84 c0 -2.88 2.52 -5.4 5.6 -5.4 c2.96 0 5.28 2.28 5.6 5 c0.04 0.4 0 0.84 0 1.24 l0.04 2.92 l0 8 l6.48 0.08 l0 -12.04 c0 -2.92 -1.48 -5.8 -3.6 -7.84 c-2.32 -2.24 -5.16 -3.44 -8.52 -3.44 c-2 0 -3.92 0.44 -5.68 1.32 l0 -1.2 l-6.36 0 l0 0.24 z M264.80000000000007 28.36 c0 -6.16 5.24 -11.52 11.96 -11.52 c6.68 0 11.92 5.36 11.92 11.52 c0 0.84 -0.08 1.64 -0.24 2.4 l-16.68 0.04 c0.88 1.8 2.72 3.08 5 3.08 c1.56 0 2.96 -0.64 3.92 -1.6 l7.28 0 c-1.64 4.36 -6 7.64 -11.2 7.64 c-6.72 0 -11.96 -5.2 -11.96 -11.4 l0 -0.16 z M271.96000000000004 25.6 l-0.2 0.56 l10.12 0 l-0.32 -0.56 c-0.96 -1.6 -2.68 -2.72 -4.8 -2.72 s-3.88 1.12 -4.8 2.72 z M291.88000000000005 40.04 l6.48 0 l-0.08 -31.28 l-6.36 0 l0 0.4 z"></path></g>
			</g>
		</svg>
	